<?xml version="1.0" encoding="UTF-8"?>
<svg version="1.1" xmlns="http://www.w3.org/2000/svg" width="512" height="512">
<path d="M0 0 C1.69618182 0.00141285 3.3923667 0.00061388 5.08854675 -0.00221252 C9.66240226 -0.00363887 14.23559342 0.02562324 18.80929542 0.06065726 C23.60051531 0.09205203 28.3917528 0.0948618 33.18305969 0.1007843 C42.24224364 0.11628435 51.30112354 0.15726056 60.360174 0.20753175 C70.67941582 0.26354508 80.99867265 0.2909418 91.31802881 0.31600893 C112.53290787 0.36818003 133.74751383 0.45604724 154.9621582 0.56762695 C154.96762665 2.10286263 154.96762665 2.10286263 154.97320557 3.66911316 C155.01031228 13.36318897 155.06825444 23.05695173 155.14606094 32.75078869 C155.18539725 37.73328565 155.21765318 42.71560954 155.2331543 47.69824219 C155.24841267 52.51603607 155.28301887 57.33335368 155.33046722 62.15093422 C155.34518702 63.97947335 155.35319375 65.80808052 155.35404205 67.6366787 C155.36933862 84.09195748 157.31912328 97.20136441 168.9934082 109.7512207 C183.05306056 123.22505421 199.19955332 123.85871604 217.53637695 123.98168945 C219.31428392 124.00043284 221.09218229 124.02000853 222.87007141 124.04037476 C227.51413874 124.09136735 232.1582348 124.13116744 236.8024292 124.16851807 C241.55561234 124.2087656 246.30867936 124.25976252 251.06176758 124.30981445 C260.36181581 124.40618369 269.66193013 124.49071134 278.9621582 124.56762695 C279.00782098 153.31585935 279.04319695 182.06408746 279.06428886 210.81234901 C279.06679016 214.20929068 279.06937882 217.60623227 279.07202148 221.00317383 C279.07280842 222.0175435 279.07280842 222.0175435 279.07361124 223.05240549 C279.08230479 233.99025707 279.09806896 244.92808754 279.1164638 255.86592661 C279.13519211 267.09603617 279.1461315 278.32613522 279.15033519 289.55626118 C279.1529407 295.8611458 279.15905738 302.16598261 279.17361832 308.4708519 C279.18721948 314.40839319 279.19137569 320.34586708 279.18837357 326.28342247 C279.18892259 328.45940327 279.19288487 330.63538638 279.20056915 332.81135368 C279.21057002 335.79007901 279.20810833 338.76855235 279.20266724 341.74728394 C279.21140576 343.02845921 279.21140576 343.02845921 279.22032082 344.33551681 C279.16478408 355.64121291 276.88357093 365.17778604 269.03637695 373.64575195 C261.84218466 380.29514133 254.50102141 382.69615864 244.74223328 382.68788147 C243.49006516 382.68925613 242.23789703 382.6906308 240.94778442 382.69204712 C239.56805396 382.68850845 238.18832374 382.68487365 236.80859375 382.68115234 C235.34974672 382.68087015 233.89089956 382.68102884 232.43205261 382.68159485 C228.47791687 382.68188155 224.52381152 382.67600532 220.56968284 382.66902089 C216.43503203 382.66276624 212.30038051 382.66218188 208.16572571 382.66099548 C200.33895674 382.6578884 192.51220175 382.6496834 184.68543893 382.63964599 C175.77376532 382.62846553 166.86209104 382.62296953 157.95041215 382.61795056 C139.62098625 382.60750027 121.29157335 382.58991288 102.9621582 382.56762695 C104.09528585 379.7029233 105.26827775 376.88191916 106.5246582 374.06762695 C110.22520328 365.05760416 109.71754629 356.66249278 106.41137695 347.56762695 C99.62129261 333.51160329 86.30288482 329.50846719 72.5246582 324.69262695 C71.37416992 324.29688477 70.22368164 323.90114258 69.03833008 323.4934082 C54.21574149 318.20262587 41.47837283 309.81373588 33.92895508 295.61108398 C30.84063272 289.08349355 28.51229501 282.1974639 26.07543945 275.4074707 C21.68529867 263.23325718 17.88332675 252.79363013 5.6496582 246.50512695 C-2.65143791 242.74891438 -11.02955693 242.2738468 -19.7253418 245.19262695 C-28.94024966 248.98083232 -33.66294423 253.78363338 -38.69018555 262.37231445 C-39.13491211 263.09676758 -39.57963867 263.8212207 -40.0378418 264.56762695 C-40.3678418 264.56762695 -40.6978418 264.56762695 -41.0378418 264.56762695 C-41.12917635 234.43510745 -41.19992389 204.30259271 -41.24210311 174.16996525 C-41.24710568 170.60907817 -41.252283 167.04819136 -41.25756836 163.48730469 C-41.2586176 162.77842379 -41.25966684 162.06954289 -41.26074788 161.33918075 C-41.27813283 149.87495126 -41.30965992 138.41080236 -41.34645298 126.94662061 C-41.3839157 115.17523334 -41.40608889 103.40388816 -41.41419578 91.63244373 C-41.41918223 85.02398977 -41.43163239 78.41568545 -41.46076202 71.80728722 C-41.48797436 65.58324203 -41.49627488 59.35945402 -41.49027252 53.135355 C-41.49137014 50.85496751 -41.49928902 48.57457115 -41.5146637 46.29423523 C-41.68491949 19.73246345 -41.68491949 19.73246345 -32.9753418 10.19262695 C-32.30374023 9.42176758 -31.63213867 8.6509082 -30.94018555 7.85668945 C-21.3401945 0.28522949 -11.68965002 -0.13729922 0 0 Z " fill="#000000" transform="translate(165.037841796875,31.432373046875)"/>
<path d="M0 0 C2.34814453 0.15551758 2.34814453 0.15551758 5 1 C6.37451172 3.36987305 6.37451172 3.36987305 7.4296875 6.51171875 C7.82881348 7.65584229 8.22793945 8.79996582 8.63916016 9.97875977 C9.0469873 11.20264404 9.45481445 12.42652832 9.875 13.6875 C10.74973371 16.17120572 11.62989804 18.65300587 12.515625 21.1328125 C13.15274414 22.92187012 13.15274414 22.92187012 13.80273438 24.74707031 C17.5835453 35.01940408 22.63009609 43.87833904 30 52 C31.10794922 53.24716797 31.10794922 53.24716797 32.23828125 54.51953125 C44.08792494 67.14492903 59.10280615 74.19598297 75.203125 79.84765625 C76.50890503 80.30954346 76.50890503 80.30954346 77.84106445 80.78076172 C79.54484679 81.37576384 81.25430423 81.95480629 82.96948242 82.51611328 C83.74138916 82.78278809 84.5132959 83.04946289 85.30859375 83.32421875 C85.99751709 83.55197998 86.68644043 83.77974121 87.39624023 84.0144043 C89 85 89 85 89.73071289 87.10473633 C89.86401001 88.04289185 89.86401001 88.04289185 90 89 C86.67693954 91.10331145 83.49661587 92.67826245 79.7890625 93.98046875 C78.79865967 94.33560547 77.80825684 94.69074219 76.7878418 95.05664062 C75.22223511 95.61641602 75.22223511 95.61641602 73.625 96.1875 C48.16654685 105.55275799 28.58869692 119.14451226 16.4140625 144.2734375 C14.12225522 149.47547624 12.0859112 154.69776483 10.25 160.07421875 C9.94843994 160.94159668 9.64687988 161.80897461 9.33618164 162.70263672 C8.74560186 164.41774072 8.17383086 166.13945872 7.62280273 167.86767578 C6.87572088 170.04283764 6.17394349 172.02180794 5 174 C2.28515625 175.04296875 2.28515625 175.04296875 0 175 C-2.41666402 169.38822729 -4.74246856 163.7738321 -6.796875 158.01953125 C-12.42201911 142.37741927 -19.11710694 129.88289306 -31 118 C-31.93392578 117.06607422 -31.93392578 117.06607422 -32.88671875 116.11328125 C-43.94170944 105.79992515 -57.5295344 100.14091605 -71.66015625 95.4375 C-72.43520508 95.17598145 -73.21025391 94.91446289 -74.00878906 94.64501953 C-75.51497765 94.14157328 -77.02600523 93.65232261 -78.54199219 93.17919922 C-83.63111624 91.49122243 -83.63111624 91.49122243 -85.54296875 88.9453125 C-86 87 -86 87 -85 85 C-82.97440867 84.1501303 -80.90946677 83.3935225 -78.83203125 82.6796875 C-77.53939844 82.22722968 -76.24700826 81.7740782 -74.95483398 81.3203125 C-74.27750214 81.08473633 -73.60017029 80.84916016 -72.90231323 80.60644531 C-46.79814156 71.46985181 -25.92997418 58.78686469 -13.06933594 33.31884766 C-9.52415139 25.63113924 -6.81724215 17.56411001 -3.96240234 9.60205078 C-2.75703843 6.3431039 -1.41468498 3.17300006 0 0 Z " fill="#000000" transform="translate(154,305)"/>
<path d="M0 0 C2.22381712 -0.03905074 4.44783439 -0.06680189 6.671875 -0.08984375 C8.5295752 -0.11485962 8.5295752 -0.11485962 10.42480469 -0.14038086 C25.69495159 0.45920494 36.0606807 14.88582316 46.17578125 24.9375 C46.73406301 25.49170624 47.29234478 26.04591248 47.86754417 26.61691284 C50.81344551 29.54215727 53.7562058 32.47052067 56.6965332 35.40136719 C59.71166586 38.40537991 62.73831801 41.39750923 65.76759052 44.38725281 C68.11901109 46.71243162 70.46140953 49.04654577 72.80153465 51.38308716 C73.91321768 52.48993674 75.0282424 53.59344161 76.14681435 54.69332886 C90.722041 69.0397662 90.722041 69.0397662 92.3125 79.5625 C92.45300781 80.40941406 92.59351563 81.25632812 92.73828125 82.12890625 C93.0700362 85.76830755 93.01564816 89.34510302 93 93 C82.83788928 93.06965182 72.67583578 93.12288824 62.51353455 93.15543652 C57.79425598 93.17106169 53.0751413 93.19224224 48.35595703 93.22631836 C43.7977539 93.25902437 39.23970795 93.27687668 34.68139648 93.28463173 C32.94634529 93.29015511 31.21130225 93.30094082 29.47631836 93.31719017 C27.03741168 93.33911429 24.59914634 93.34196074 22.16015625 93.34057617 C21.45021011 93.351362 20.74026398 93.36214783 20.00880432 93.3732605 C14.47285513 93.33947377 8.6208464 92.42479094 4.43055725 88.54796124 C0.27368864 83.6545434 -0.14288671 80.44873934 -0.11352539 74.24560547 C-0.11367142 73.44552063 -0.11381744 72.64543579 -0.1139679 71.82110596 C-0.1132698 69.16977247 -0.10548221 66.51850875 -0.09765625 63.8671875 C-0.0957917 62.03158608 -0.09436797 60.19598417 -0.09336853 58.36038208 C-0.08954623 53.52376945 -0.07971839 48.68718673 -0.06866455 43.85058594 C-0.05844426 38.91732183 -0.05386958 33.98405289 -0.04882812 29.05078125 C-0.03809588 19.36717434 -0.02102289 9.68358965 0 0 Z " fill="#000000" transform="translate(351,32)"/>
</svg>
